<svg width="30" height="31" viewBox="0 0 30 31" fill="none" xmlns="http://www.w3.org/2000/svg">
<path d="M7.24826 11.6847C7.73699 7.77486 11.0606 4.84082 15.0009 4.84082V4.84082C18.9411 4.84082 22.2647 7.77486 22.7534 11.6847L23.1508 14.8634C23.1516 14.8698 23.1529 14.8761 23.1546 14.8823L24.3291 18.9927C24.3801 19.1714 24.406 19.3563 24.406 19.5422V20.3971C24.406 21.5017 23.5106 22.3971 22.406 22.3971H7.5957C6.49113 22.3971 5.5957 21.5017 5.5957 20.3971V19.5422C5.5957 19.3563 5.6216 19.1714 5.67266 18.9927L6.84707 14.8823C6.84884 14.8761 6.85012 14.8698 6.85092 14.8634L7.24826 11.6847Z" stroke="white" stroke-width="1.2"/>
<path d="M15.2109 4.84097V2.49609" stroke="white" stroke-width="1.2" stroke-linecap="round"/>
<path d="M11.8652 26.1592H18.1353" stroke="white" stroke-width="1.2" stroke-linecap="round"/>
</svg>
