<svg width="32" height="32" viewBox="0 0 32 32" fill="none" xmlns="http://www.w3.org/2000/svg">
<g clip-path="url(#clip0_1_30683)">
<path d="M9.5804 16.0744C9.5804 15.355 9.7014 14.6653 9.9159 14.0185L6.1484 11.1689C5.39055 12.693 4.99741 14.3723 5.00001 16.0744C5.00001 17.8372 5.41251 19.4998 6.1462 20.976L9.91261 18.1215C9.69261 17.4615 9.58095 16.7701 9.5804 16.0744Z" fill="#FBBC05"/>
<path d="M16.1986 9.5323C17.6996 9.52929 19.1557 10.0445 20.3208 10.9909L23.5785 7.77011C21.5936 6.05961 19.0487 5.00195 16.1986 5.00195C11.7733 5.00195 7.9695 7.5083 6.14844 11.1696L9.91869 14.0192C10.7866 11.4089 13.2616 9.53178 16.1997 9.53178" fill="#EA4335"/>
<path d="M16.2473 22.4721C13.2937 22.4721 10.8066 20.607 9.93323 18.0127L6.14648 20.8452C7.97635 24.484 11.7989 26.9738 16.2472 26.9738C18.9912 26.9738 21.6114 26.0202 23.5787 24.2316L19.9834 21.5101C18.9698 22.1355 17.6921 22.4726 16.2461 22.4726" fill="#34A853"/>
<path d="M26.9887 15.9706C26.9887 15.3205 26.8858 14.6198 26.7329 13.9697H16.2461V18.2212H22.2818C21.9809 19.671 21.1598 20.7853 19.9839 21.5102L23.5787 24.2316C25.6451 22.3545 26.9887 19.5577 26.9887 15.9706Z" fill="#4285F4"/>
</g>
<defs>
<clipPath id="clip0_1_30683">
<rect width="22" height="22" fill="white" transform="translate(5 5)"/>
</clipPath>
</defs>
</svg>
