<svg width="24" height="24" viewBox="0 0 24 24" fill="none" xmlns="http://www.w3.org/2000/svg">
<path d="M4.70117 15.4247C4.70287 13.9088 5.30581 12.4555 6.37771 11.3836C7.44961 10.3117 8.90293 9.70877 10.4188 9.70707V13.1375C9.81249 13.1382 9.23119 13.3794 8.80246 13.8081C8.37372 14.2369 8.13255 14.8182 8.13185 15.4245C8.13185 16.5482 8.73954 17.7571 10.0739 17.7571C10.1627 17.7571 12.2485 17.7367 12.2485 15.9627V2.95996H15.9041C15.9061 3.77977 16.2328 4.5654 16.8128 5.14483C17.3928 5.72426 18.1787 6.05026 18.9985 6.05146L18.9954 9.47571C17.8282 9.48467 16.6811 9.17171 15.6802 8.57121L15.6787 15.9627C15.6787 19.3564 12.7908 21.1876 10.0734 21.1876C7.01099 21.1883 4.70117 18.7104 4.70117 15.4247Z" fill="#A8A8A8"/>
<path d="M3.78711 14.5097C3.78881 12.9938 4.39175 11.5405 5.46365 10.4686C6.53555 9.39667 7.98886 8.79374 9.50476 8.79203V12.2225C8.89843 12.2232 8.31713 12.4643 7.88839 12.8931C7.45965 13.3218 7.21848 13.9031 7.21779 14.5094C7.21779 15.6332 7.82547 16.8421 9.15985 16.8421C9.24864 16.8421 11.3345 16.8216 11.3345 15.0476V2.04492H14.9901C14.992 2.86473 15.3188 3.65036 15.8987 4.22979C16.4787 4.80922 17.2646 5.13522 18.0844 5.13642L18.0813 8.56067C16.9141 8.56963 15.767 8.25667 14.7661 7.65617L14.7647 15.0476C14.7647 18.4414 11.8767 20.2726 9.15938 20.2726C6.09692 20.2733 3.78711 17.7954 3.78711 14.5097Z" fill="#CECECE"/>
<path d="M9.50538 9.77586C5.81358 10.2443 2.89347 14.9529 5.92307 19.1901C8.7218 21.4792 14.6094 20.1479 14.7724 15.1953L14.7684 7.66051C15.7753 8.25153 16.9223 8.56159 18.0898 8.55835V5.90887C17.4034 5.67703 16.8099 5.23014 16.3975 4.63447C15.7922 4.23634 15.343 3.64137 15.1259 2.9502H12.2513L12.2494 16.0003C12.2467 17.8243 9.20499 18.4738 8.43283 16.7036C6.4991 15.7791 6.93636 12.2656 9.50943 12.2273L9.50538 9.77586Z" fill="black"/>
</svg>
