<svg width="30" height="31" viewBox="0 0 30 31" fill="none" xmlns="http://www.w3.org/2000/svg">
<g opacity="0.8">
<path d="M24.6915 6.24523C22.9182 5.43169 20.9981 4.84122 18.998 4.50006C18.9805 4.49951 18.9631 4.50275 18.9469 4.50955C18.9308 4.51635 18.9164 4.52655 18.9047 4.53943C18.6647 4.97244 18.3847 5.53666 18.198 5.96968C16.0766 5.65476 13.9192 5.65476 11.7978 5.96968C11.6112 5.52354 11.3312 4.97244 11.0778 4.53943C11.0645 4.51318 11.0245 4.50006 10.9845 4.50006C8.98444 4.84122 7.07772 5.43169 5.291 6.24523C5.27767 6.24523 5.26434 6.25835 5.251 6.27147C1.62424 11.6119 0.624208 16.8081 1.11756 21.9517C1.11756 21.978 1.13089 22.0042 1.15756 22.0174C3.55762 23.7494 5.86435 24.7991 8.14442 25.4946C8.18442 25.5077 8.22442 25.4946 8.23775 25.4683C8.7711 24.7466 9.25111 23.9856 9.66446 23.1852C9.69112 23.1327 9.66446 23.0802 9.61112 23.0671C8.8511 22.7784 8.13108 22.4372 7.4244 22.0436C7.37106 22.0174 7.37106 21.9386 7.41106 21.8993C7.55773 21.7943 7.7044 21.6762 7.85107 21.5712C7.87774 21.545 7.91774 21.545 7.94441 21.5581C12.5312 23.6182 17.478 23.6182 22.0115 21.5581C22.0381 21.545 22.0781 21.545 22.1048 21.5712C22.2515 21.6893 22.3981 21.7943 22.5448 21.9124C22.5981 21.9517 22.5981 22.0305 22.5315 22.0567C21.8381 22.4635 21.1048 22.7915 20.3448 23.0802C20.2914 23.0933 20.2781 23.1589 20.2914 23.1983C20.7181 23.9987 21.1981 24.7598 21.7181 25.4814C21.7581 25.4946 21.7981 25.5077 21.8381 25.4946C24.1315 24.7991 26.4382 23.7494 28.8383 22.0174C28.865 22.0042 28.8783 21.978 28.8783 21.9517C29.465 16.0077 27.905 10.8509 24.7449 6.27147C24.7315 6.25835 24.7182 6.24523 24.6915 6.24523ZM10.3578 18.8157C8.98444 18.8157 7.83774 17.5691 7.83774 16.0339C7.83774 14.4987 8.95777 13.2521 10.3578 13.2521C11.7712 13.2521 12.8912 14.5118 12.8779 16.0339C12.8779 17.5691 11.7578 18.8157 10.3578 18.8157ZM19.6514 18.8157C18.278 18.8157 17.1313 17.5691 17.1313 16.0339C17.1313 14.4987 18.2514 13.2521 19.6514 13.2521C21.0648 13.2521 22.1848 14.5118 22.1715 16.0339C22.1715 17.5691 21.0648 18.8157 19.6514 18.8157Z" stroke="black" stroke-width="1.5"/>
</g>
</svg>
