<svg width="24" height="24" viewBox="0 0 24 24" fill="none" xmlns="http://www.w3.org/2000/svg">
<path d="M21.3694 12C21.3694 10.7063 21.3812 9.42423 21.3085 8.13283C21.2359 6.63283 20.8937 5.30158 19.7968 4.2047C18.6976 3.10548 17.3687 2.76564 15.8687 2.69298C14.5749 2.62033 13.2929 2.63204 12.0015 2.63204C10.7077 2.63204 9.4257 2.62033 8.13429 2.69298C6.63429 2.76564 5.30304 3.10783 4.20617 4.2047C3.10695 5.30392 2.7671 6.63283 2.69445 8.13283C2.62179 9.42658 2.63351 10.7086 2.63351 12C2.63351 13.2914 2.62179 14.5758 2.69445 15.8672C2.7671 17.3672 3.10929 18.6985 4.20617 19.7953C5.30538 20.8945 6.63429 21.2344 8.13429 21.307C9.42804 21.3797 10.7101 21.368 12.0015 21.368C13.2952 21.368 14.5773 21.3797 15.8687 21.307C17.3687 21.2344 18.6999 20.8922 19.7968 19.7953C20.896 18.6961 21.2359 17.3672 21.3085 15.8672C21.3835 14.5758 21.3694 13.2938 21.3694 12Z" fill="black"/>
<path d="M12.0004 7.19292C9.34023 7.19292 7.19336 9.33979 7.19336 12C7.19336 14.6601 9.34023 16.807 12.0004 16.807C14.6605 16.807 16.8074 14.6601 16.8074 12C16.8074 9.33979 14.6605 7.19292 12.0004 7.19292ZM12.0004 15.1242C10.2801 15.1242 8.87617 13.7203 8.87617 12C8.87617 10.2796 10.2801 8.87573 12.0004 8.87573C13.7207 8.87573 15.1246 10.2796 15.1246 12C15.1246 13.7203 13.7207 15.1242 12.0004 15.1242ZM17.0043 5.87573C16.3832 5.87573 15.8816 6.3773 15.8816 6.99839C15.8816 7.61948 16.3832 8.12105 17.0043 8.12105C17.6254 8.12105 18.127 7.62183 18.127 6.99839C18.1246 6.37495 17.6254 5.87573 17.0043 5.87573Z" fill="white"/>
</svg>
